<svg width="20" height="16" xmlns="http://www.w3.org/2000/svg"><path d="M20 5.16v9.022c0 .5-.175.928-.525 1.284-.35.356-.77.534-1.26.534H1.784c-.49 0-.91-.178-1.26-.534A1.767 1.767 0 0 1 0 14.182V5.159c.327.371.703.7 1.127.989 2.694 1.863 4.543 3.17 5.547 3.92.424.318.768.566 1.032.745.265.178.616.36 1.055.545.44.186.848.278 1.228.278h.022c.38 0 .789-.092 1.228-.278.439-.186.79-.367 1.055-.546a26.41 26.41 0 0 0 1.032-.744c1.265-.932 3.117-2.238 5.558-3.92A6.19 6.19 0 0 0 20 5.159zm0-3.342c0 .599-.182 1.17-.547 1.716a5.357 5.357 0 0 1-1.361 1.398 9010.232 9010.232 0 0 0-5.224 3.693l-.474.347c-.242.178-.443.322-.603.431-.16.11-.353.233-.58.37-.227.136-.44.238-.642.307-.2.068-.387.102-.558.102H9.99c-.171 0-.357-.034-.558-.102-.201-.069-.415-.17-.642-.307-.227-.137-.42-.26-.58-.37-.16-.11-.361-.253-.603-.431l-.474-.347a552.825 552.825 0 0 0-2.924-2.074 514.527 514.527 0 0 1-2.288-1.62c-.462-.317-.897-.755-1.306-1.312C.204 3.062 0 2.545 0 2.07 0 1.476.154.984.463.59.772.197 1.213 0 1.786 0h16.428c.484 0 .902.178 1.256.534.353.356.53.784.53 1.284z" fill="#000" fill-rule="nonzero"/></svg>