<svg width="20" height="20" xmlns="http://www.w3.org/2000/svg"><path d="M10 0c1.814 0 3.487.458 5.02 1.374a10.081 10.081 0 0 1 3.639 3.73C19.553 6.673 20 8.387 20 10.246c0 2.232-.636 4.24-1.908 6.024-1.271 1.783-2.914 3.017-4.928 3.702-.234.045-.408.014-.52-.093a.528.528 0 0 1-.17-.4l.006-1.021c.005-.654.007-1.252.007-1.795 0-.862-.226-1.494-.677-1.894.495-.054.94-.134 1.335-.24.394-.107.802-.28 1.223-.52a3.66 3.66 0 0 0 1.055-.888c.282-.351.512-.818.69-1.4.178-.583.267-1.253.267-2.009 0-1.058-.343-1.975-1.028-2.748.32-.81.286-1.717-.105-2.722-.243-.08-.594-.031-1.054.147a6.94 6.94 0 0 0-1.198.587l-.495.32A9.033 9.033 0 0 0 10 4.95c-.86 0-1.693.116-2.5.347a11.52 11.52 0 0 0-.553-.36c-.23-.143-.593-.314-1.088-.514-.494-.2-.863-.26-1.106-.18-.391 1.005-.426 1.912-.105 2.722-.685.773-1.028 1.69-1.028 2.748 0 .756.089 1.423.267 2.001.178.579.406 1.046.683 1.401a3.53 3.53 0 0 0 1.048.894c.421.24.83.414 1.224.52.395.107.84.187 1.335.24-.338.321-.551.78-.638 1.375a2.54 2.54 0 0 1-.586.2 3.599 3.599 0 0 1-.742.067c-.287 0-.57-.096-.853-.287-.282-.191-.523-.47-.723-.834a2.133 2.133 0 0 0-.631-.694c-.256-.177-.471-.284-.645-.32l-.26-.04c-.182 0-.308.02-.378.06-.07.04-.09.091-.065.154a.737.737 0 0 0 .117.186.961.961 0 0 0 .17.16l.09.067c.192.09.38.258.567.507.187.25.324.476.41.68l.13.308c.113.338.304.611.574.82.269.21.56.343.872.4.312.058.614.09.905.094.29.004.532-.011.723-.047l.299-.053c0 .338.002.731.007 1.18l.006.728c0 .16-.056.293-.17.4-.112.107-.286.138-.52.093-2.014-.685-3.657-1.919-4.928-3.702C.636 14.487 0 12.479 0 10.247c0-1.86.447-3.574 1.341-5.144a10.081 10.081 0 0 1 3.64-3.729A9.602 9.602 0 0 1 10 0zM3.79 14.716c.025-.062-.005-.115-.092-.16-.087-.026-.143-.017-.17.027-.025.062.005.116.092.16.078.054.134.045.17-.027zm.403.454c.06-.044.052-.116-.026-.213-.087-.08-.157-.094-.209-.04-.06.044-.052.115.026.213.087.089.157.102.209.04zm.39.6c.078-.062.078-.146 0-.253-.07-.116-.143-.142-.221-.08-.078.044-.078.124 0 .24.078.116.152.147.221.094zm.547.56c.07-.07.052-.155-.052-.253-.104-.106-.19-.12-.26-.04-.078.072-.061.156.052.254.104.107.19.12.26.04zm.742.334c.026-.097-.03-.169-.169-.213-.13-.036-.213-.004-.247.093-.035.098.021.165.169.2.13.054.213.027.247-.08zm.82.067c0-.115-.073-.164-.22-.147-.14 0-.209.05-.209.147 0 .116.074.165.221.147.14 0 .209-.049.209-.147zm.756-.133c-.017-.098-.096-.138-.234-.12-.14.026-.2.093-.183.2.018.107.096.142.235.107.139-.036.2-.098.182-.187z" fill="#000" fill-rule="nonzero"/></svg>