<svg width="20" height="20" xmlns="http://www.w3.org/2000/svg"><path d="M13.333 10c0-.92-.325-1.706-.976-2.357A3.212 3.212 0 0 0 10 6.667c-.92 0-1.706.325-2.357.976A3.212 3.212 0 0 0 6.667 10c0 .92.325 1.706.976 2.357a3.212 3.212 0 0 0 2.357.976c.92 0 1.706-.325 2.357-.976A3.212 3.212 0 0 0 13.333 10zm1.797 0c0 1.424-.499 2.635-1.497 3.633-.998.998-2.21 1.497-3.633 1.497-1.424 0-2.635-.499-3.633-1.497C5.37 12.635 4.87 11.423 4.87 10c0-1.424.499-2.635 1.497-3.633C7.365 5.37 8.577 4.87 10 4.87c1.424 0 2.635.499 3.633 1.497.998.998 1.497 2.21 1.497 3.633zm1.406-5.339c0 .33-.117.612-.351.847a1.154 1.154 0 0 1-.846.351c-.33 0-.612-.117-.847-.351a1.154 1.154 0 0 1-.351-.847c0-.33.117-.612.351-.846.235-.234.517-.351.847-.351.33 0 .612.117.846.351.234.234.351.517.351.846zM10 1.797l-.996-.007a70.638 70.638 0 0 0-1.374 0c-.312.005-.731.018-1.256.04-.525.021-.973.065-1.341.13a5.22 5.22 0 0 0-.931.24 3.378 3.378 0 0 0-1.146.756c-.33.33-.582.712-.755 1.146a5.22 5.22 0 0 0-.241.93c-.065.37-.109.817-.13 1.342-.022.525-.035.944-.04 1.256-.004.313-.004.77 0 1.374l.007.996-.007.996a70.638 70.638 0 0 0 0 1.374c.005.312.018.731.04 1.256.021.525.065.973.13 1.341.065.37.145.68.24.931.174.434.426.816.756 1.146.33.33.712.582 1.146.755.251.096.562.176.93.241.37.065.817.109 1.342.13.525.022.944.035 1.256.04.313.004.77.004 1.374 0l.996-.007.996.007c.603.004 1.061.004 1.374 0 .312-.005.731-.018 1.256-.04.525-.021.973-.065 1.341-.13a5.22 5.22 0 0 0 .931-.24 3.378 3.378 0 0 0 1.146-.756c.33-.33.582-.712.755-1.146a5.22 5.22 0 0 0 .241-.93c.065-.37.109-.817.13-1.342.022-.525.035-.944.04-1.256.004-.313.004-.77 0-1.374a346.91 346.91 0 0 1-.007-.996l.007-.996c.004-.603.004-1.061 0-1.374a48.238 48.238 0 0 0-.04-1.256 10.319 10.319 0 0 0-.13-1.341 5.22 5.22 0 0 0-.24-.931 3.378 3.378 0 0 0-.756-1.146 3.378 3.378 0 0 0-1.146-.755 5.22 5.22 0 0 0-.93-.241 10.319 10.319 0 0 0-1.342-.13 48.238 48.238 0 0 0-1.256-.04c-.313-.004-.77-.004-1.374 0L10 1.797zM20 10c0 1.988-.022 3.364-.065 4.128-.087 1.805-.625 3.203-1.615 4.192-.99.99-2.387 1.528-4.192 1.615-.764.043-2.14.065-4.128.065s-3.364-.022-4.128-.065c-1.805-.087-3.203-.625-4.192-1.615-.99-.99-1.528-2.387-1.615-4.192C.022 13.364 0 11.988 0 10s.022-3.364.065-4.128C.152 4.067.69 2.67 1.68 1.68 2.67.69 4.067.152 5.872.065 6.636.022 8.012 0 10 0s3.364.022 4.128.065C15.933.152 17.33.69 18.32 1.68c.99.99 1.528 2.387 1.615 4.192.043.764.065 2.14.065 4.128z" fill="#000" fill-rule="nonzero"/></svg>