<svg width="20" height="20" xmlns="http://www.w3.org/2000/svg"><path d="M4.544 6.499V20H.247V6.499h4.297zm.274-4.17c.008.664-.21 1.218-.658 1.663-.447.445-1.035.667-1.764.667H2.37c-.712 0-1.285-.222-1.719-.667C.217 3.547 0 2.992 0 2.33 0 1.658.224 1.1.67.66 1.119.22 1.702 0 2.423 0c.72 0 1.298.22 1.732.66.434.441.655.998.664 1.67zM20 12.263V20h-4.284v-7.22c0-.954-.176-1.701-.527-2.242-.352-.54-.9-.81-1.647-.81-.547 0-1.005.156-1.374.47a2.891 2.891 0 0 0-.827 1.164c-.095.273-.143.64-.143 1.104V20H6.914c.017-3.624.026-6.562.026-8.815 0-2.252-.004-3.596-.013-4.032l-.013-.654h4.284V8.46h-.026c.173-.29.351-.544.534-.762.182-.218.427-.455.735-.709a3.328 3.328 0 0 1 1.133-.593c.447-.14.944-.21 1.491-.21 1.484 0 2.678.515 3.58 1.546.904 1.03 1.355 2.54 1.355 4.53z" fill="#000" fill-rule="nonzero"/></svg>