<?xml version="1.0" encoding="UTF-8"?>
<svg width="32px" height="34px" viewBox="0 0 32 34" version="1.1" xmlns="http://www.w3.org/2000/svg" xmlns:xlink="http://www.w3.org/1999/xlink">
    <!-- Generator: Sketch 49.3 (51167) - http://www.bohemiancoding.com/sketch -->
    <title>logo</title>
    <desc>Created with Sketch.</desc>
    <defs></defs>
    <g id="Page-1" stroke="none" stroke-width="1" fill="none" fill-rule="evenodd">
        <g id="Artboard" transform="translate(-497.000000, -11.000000)" fill="#FFFFFF">
            <path d="M528.6108,38 C528.683149,38.3592555 528.701061,38.7215855 528.68991,39.0868969 C528.678671,39.4522083 528.638458,39.8205943 528.594557,40.1922411 C528.172668,41.5414057 529.336923,43.5218761 528.900283,43.7694232 C527.299389,44.9452955 525.334732,45.1309792 523.242761,44.9298296 C522.196776,44.8293015 521.118918,44.632065 520.063187,44.3632755 C517.839952,43.5218761 515.365867,43.3980559 512.89187,43.2742358 C512.018679,43.2742358 511.582127,42.5315943 511,42.0365 C513.473997,41.9126798 516.09357,41.4175855 518.59382,41.9884253 C519.542784,42.1669351 520.49886,42.384948 521.45599,42.5679298 C523.370074,42.9338934 525.262031,43.2123723 527.153901,42.6554145 C526.426286,41.5414057 527.008413,40.3035767 527.772028,39.3081707 C527.932881,39.0741329 528.083461,38.8397224 528.199272,38.5993492 C528.453108,38.2385099 528.6108,38 528.6108,38 Z M499.267853,28.9618735 C498.899272,25.9456382 498.524133,22.9511088 498.141458,19.9781088 C497.759133,17.0051088 497.397737,14.0253147 497.05783,11.0374029 C497.255691,11.2960206 497.475458,11.5544618 497.716714,11.8129912 C497.956993,12.0715206 498.205365,12.33005 498.460435,12.5885794 L499.990574,24.6100206 C499.990574,24.86855 499.969365,25.1129618 499.926667,25.3424618 C499.884249,25.5726676 499.834505,25.8164618 499.778063,26.0750794 C499.664481,26.59205 499.579574,27.0808735 499.523063,27.5399618 C499.465923,27.9998441 499.380807,28.4737559 499.267853,28.9618735 Z M505.900491,24 C506.074604,24.8401777 506.257999,25.6646137 506.450245,26.47482 C506.641633,27.2857378 506.825027,28.0810918 507,28.8628386 C507,29.1817628 506.964937,29.4912598 506.895412,29.7951539 C506.825027,30.0992258 506.79048,30.3788404 506.79048,30.6395116 C506.266937,32.8977726 505.786707,35.1224159 505.350822,37.3224239 C504.913992,39.5229655 504.468825,41.7766018 504.015581,44 L498.884824,44 L497,42.3991533 L502.131015,42.3991533 C502.759232,39.2863959 503.387449,36.2831186 504.015581,33.1995322 C504.644142,30.1161236 505.272273,27.0692677 505.900491,24 Z M524,12.8117875 C523.983456,13.0977264 523.966577,13.3936682 523.948612,13.7011449 C523.921623,14.1254123 523.89313,14.5479675 523.861963,14.9689907 C523.830796,15.3900139 523.796872,15.8100458 523.753757,16.236476 C523.678388,18.3032925 521.877978,19.8596905 521.323993,21.775292 C520.354478,24.2895358 521.185455,26.8037796 520.749203,29.3558723 C520.565293,29.761035 520.464439,30.1396134 520.425669,30.5062064 C520.231314,32.3179038 521.542496,34.5362058 522.119543,36.232284 C522.95052,38.1478855 520.492932,39.3749987 518,38.8962109 C518.415531,38.0580396 518.969516,37.2199583 518.831061,36.381877 C518.831061,34.3865227 518.061665,32.3909881 518.409264,30.3660756 C518.478783,29.961003 518.593006,29.5546687 518.766973,29.1468025 C519.246508,26.5643407 518.969516,24.0500969 519.662039,21.4160886 C520.216024,19.6202516 521.462448,18.183528 521.610846,16.3292056 C521.661147,15.8796155 521.712451,15.4402988 521.758157,14.9999006 C521.895275,13.6787961 521.98184,12.3468777 522.016433,11 C522.708956,11.5985522 523.401395,12.0775202 524,12.8117875 Z M511.619089,24.5861552 C511.364496,23.1368607 511.095286,21.6512346 510.809662,20.1291887 C510.459861,18.6367725 510.142812,17.1296296 509.857109,15.607672 C509.571406,14.0863316 509.285703,12.5502646 509,11 L510.714219,12.5502646 C511.126397,14.617284 511.523724,16.6775132 511.904792,18.7297178 C512.285859,20.7825397 512.650277,22.8710758 513,24.9953263 C512.935981,25.6559965 512.857344,26.3233686 512.761901,26.997619 C512.666693,27.672575 512.58704,28.3398589 512.523724,29 C512.17408,27.5075838 511.872899,26.036067 511.619089,24.5861552 Z" id="logo"></path>
        </g>
    </g>
</svg>