<svg width="32" height="34" xmlns="http://www.w3.org/2000/svg"><path d="M31.61 27c.073.36.091.722.08 1.087-.011.365-.052.734-.095 1.105-.422 1.35.742 3.33.305 3.577-1.6 1.176-3.565 1.362-5.657 1.16a21.237 21.237 0 0 1-3.18-.566c-2.223-.841-4.697-.965-7.171-1.089-.873 0-1.31-.742-1.892-1.238 2.474-.123 5.094-.618 7.594-.048.949.179 1.905.397 2.862.58 1.914.366 3.806.644 5.698.087-.728-1.114-.146-2.351.618-3.347.16-.234.311-.468.427-.709.254-.36.412-.599.412-.599zM2.269 17.962c-.369-3.016-.744-6.01-1.127-8.984A615.824 615.824 0 0 1 .058.038c.198.258.417.516.659.775.24.259.488.517.743.776L2.99 13.61c0 .259-.02.503-.063.732-.043.23-.092.474-.149.733a15.908 15.908 0 0 0-.255 1.465c-.057.46-.142.934-.255 1.422zM8.9 13c.175.84.358 1.665.55 2.475.192.81.375 1.606.55 2.388 0 .319-.035.628-.105.932-.07.304-.105.584-.105.845a212.162 212.162 0 0 0-1.44 6.682C7.915 28.523 7.47 30.777 7.017 33H1.885L0 31.4h5.131c.628-3.114 1.256-6.117 1.885-9.2.628-3.084 1.256-6.13 1.884-9.2zM27 1.812l-.051.89c-.027.423-.056.846-.087 1.267-.031.421-.065.841-.108 1.267-.076 2.067-1.876 3.624-2.43 5.54-.97 2.514-.139 5.028-.575 7.58a3.698 3.698 0 0 0-.323 1.15c-.195 1.812 1.116 4.03 1.694 5.726.83 1.916-1.627 3.143-4.12 2.664.416-.838.97-1.676.831-2.514 0-1.995-.77-3.991-.422-6.016a5.43 5.43 0 0 1 .358-1.22c.48-2.582.203-5.096.895-7.73.554-1.796 1.8-3.232 1.949-5.087.05-.45.101-.889.147-1.33.137-1.32.224-2.652.258-3.999.693.599 1.385 1.078 1.984 1.812zM14.62 13.586a390.08 390.08 0 0 0-.81-4.457c-.35-1.492-.667-3-.953-4.521C12.571 3.086 12.286 1.55 12 0l1.714 1.55c.412 2.067.81 4.128 1.19 6.18.382 2.053.746 4.141 1.096 6.265a45.79 45.79 0 0 1-.238 2.003A45.307 45.307 0 0 0 15.524 18a79.292 79.292 0 0 1-.905-4.414z" fill="#FFF" fill-rule="evenodd"/></svg>