<svg width="20" height="20" xmlns="http://www.w3.org/2000/svg"><path d="M14.674 14.089c0-.278-.13-.5-.39-.665-1.675-.998-3.616-1.497-5.82-1.497-1.155 0-2.4.148-3.737.443-.365.078-.547.304-.547.677 0 .173.058.323.175.45a.602.602 0 0 0 .463.188c.043 0 .204-.035.481-.104 1.146-.235 2.201-.352 3.165-.352 1.961 0 3.684.447 5.169 1.341.165.096.308.144.43.144a.599.599 0 0 0 .43-.176.597.597 0 0 0 .181-.45zm1.25-2.8a.874.874 0 0 0-.455-.794C13.41 9.27 11.033 8.659 8.333 8.659c-1.328 0-2.643.182-3.945.547-.417.113-.625.39-.625.833 0 .217.076.402.228.553a.753.753 0 0 0 .553.228c.061 0 .222-.034.482-.104a12.461 12.461 0 0 1 3.268-.43c2.422 0 4.54.539 6.354 1.615.209.113.374.17.495.17a.753.753 0 0 0 .554-.229.753.753 0 0 0 .227-.553zm1.407-3.23c0-.407-.174-.71-.521-.91-1.094-.634-2.366-1.114-3.815-1.44a20.322 20.322 0 0 0-4.466-.488c-1.771 0-3.351.204-4.74.612-.2.061-.367.172-.501.332-.135.161-.202.371-.202.632 0 .269.089.495.267.677a.898.898 0 0 0 .67.273c.096 0 .27-.034.521-.104 1.155-.321 2.487-.482 3.998-.482 1.38 0 2.723.148 4.03.443 1.306.295 2.406.708 3.3 1.237.183.104.356.156.521.156.252 0 .471-.089.658-.267a.888.888 0 0 0 .28-.67zM20 10c0 1.814-.447 3.487-1.341 5.02a9.955 9.955 0 0 1-3.64 3.639C13.488 19.553 11.815 20 10 20s-3.487-.447-5.02-1.341a9.955 9.955 0 0 1-3.639-3.64C.447 13.488 0 11.815 0 10s.447-3.487 1.341-5.02a9.955 9.955 0 0 1 3.64-3.639C6.512.447 8.185 0 10 0s3.487.447 5.02 1.341a9.955 9.955 0 0 1 3.639 3.64C19.553 6.512 20 8.185 20 10z" fill="#000" fill-rule="nonzero"/></svg>