<svg width="20" height="17" xmlns="http://www.w3.org/2000/svg"><path d="M20 2.019a8.818 8.818 0 0 1-2.056 2.218 12.714 12.714 0 0 1-.47 4.004 12.73 12.73 0 0 1-1.465 3.3 12.814 12.814 0 0 1-2.341 2.796c-.906.81-1.997 1.457-3.275 1.94-1.277.482-2.643.723-4.099.723-2.292 0-4.39-.642-6.294-1.926.296.036.626.053.99.053 1.903 0 3.6-.61 5.089-1.832a3.884 3.884 0 0 1-2.386-.857 4.196 4.196 0 0 1-1.447-2.118c.28.044.537.066.774.066.364 0 .724-.049 1.079-.146-.948-.204-1.732-.697-2.354-1.481-.622-.784-.933-1.693-.933-2.73v-.052a3.93 3.93 0 0 0 1.853.544 4.22 4.22 0 0 1-1.333-1.527 4.335 4.335 0 0 1-.494-2.046c0-.779.186-1.5.558-2.164A11.74 11.74 0 0 0 5.133 3.95a11.028 11.028 0 0 0 4.715 1.322 4.978 4.978 0 0 1-.102-.983c0-1.187.4-2.198 1.2-3.035C11.744.418 12.711 0 13.845 0c1.184 0 2.182.452 2.994 1.355A7.823 7.823 0 0 0 19.442.319c-.313 1.018-.914 1.806-1.802 2.364A7.882 7.882 0 0 0 20 2.019z" fill="#000" fill-rule="nonzero"/></svg>