<svg width="20" height="18" xmlns="http://www.w3.org/2000/svg"><path d="M19.988 4.177c-.082 2.01-1.442 4.783-4.079 8.317C13.182 16.164 10.88 18 9.005 18c-1.163 0-2.146-1.12-2.948-3.36-.36-1.362-.901-3.415-1.622-6.157-.59-2.232-1.233-3.347-1.929-3.347-.147 0-.667.323-1.56.97L0 4.855c.197-.18.639-.59 1.327-1.233a141.67 141.67 0 0 1 1.597-1.476C4.2.971 5.188.35 5.884.281c.779-.077 1.405.16 1.88.71.475.548.807 1.415.995 2.599.36 2.444.63 4.032.811 4.765.45 2.12.942 3.18 1.474 3.18.418 0 1.049-.685 1.892-2.056.827-1.371 1.274-2.419 1.34-3.143.106-1.183-.34-1.775-1.34-1.775-.467 0-.962.11-1.486.332.982-3.347 2.862-4.974 5.638-4.88 2.056.068 3.023 1.456 2.9 4.164z" fill="#000" fill-rule="nonzero"/></svg>