<?xml version="1.0" encoding="UTF-8"?>
<svg width="18px" height="17px" viewBox="0 0 18 17" version="1.1" xmlns="http://www.w3.org/2000/svg" xmlns:xlink="http://www.w3.org/1999/xlink">
    <!-- Generator: Sketch 46.1 (44463) - http://www.bohemiancoding.com/sketch -->
    <title>github</title>
    <desc>Created with Sketch.</desc>
    <defs>
        <polygon id="path-1" points="4.26904605e-20 -3.55271368e-15 4.26904605e-20 16.8802563 17.103975 16.8802563 17.103975 2.22044605e-16"></polygon>
    </defs>
    <g id="Page-1" stroke="none" stroke-width="1" fill="none" fill-rule="evenodd">
        <g id="home" transform="translate(-876.000000, -31.000000)">
            <g id="github" transform="translate(876.000000, 31.000000)">
                <mask id="mask-2" fill="white">
                    <use xlink:href="#path-1"></use>
                </mask>
                <g id="Clip-2"></g>
                <path d="M8.551515,-3.55271368e-15 C3.82914,-3.55271368e-15 -0.00021,3.87440625 -0.00021,8.65459375 C-0.00021,12.4774688 2.449965,15.72075 5.848815,16.8655938 C6.27669,16.94475 6.432615,16.6775313 6.432615,16.4480313 C6.432615,16.2429688 6.425265,15.6984375 6.421065,14.9764688 C4.04229,15.4992188 3.54039,13.8162188 3.54039,13.8162188 C3.151365,12.8164063 2.590665,12.5507813 2.590665,12.5507813 C1.81419,12.0136875 2.649465,12.0243125 2.649465,12.0243125 C3.50784,12.0859375 3.95934,12.9162813 3.95934,12.9162813 C4.722165,14.2385625 5.96064,13.8565938 6.448365,13.6355938 C6.526065,13.0761875 6.746565,12.69475 6.991215,12.4785313 C5.09229,12.2601875 3.095715,11.5175 3.095715,8.2014375 C3.095715,7.256875 3.42909,6.4844375 3.97614,5.87934375 C3.88794,5.66046875 3.594465,4.78071875 4.059615,3.589125 C4.059615,3.589125 4.777815,3.3564375 6.411615,4.4763125 C7.09359,4.284 7.82544,4.188375 8.552565,4.18465625 C9.27864,4.188375 10.01049,4.284 10.693515,4.4763125 C12.326265,3.3564375 13.04289,3.589125 13.04289,3.589125 C13.509615,4.78071875 13.21614,5.66046875 13.12794,5.87934375 C13.67604,6.4844375 14.007315,7.256875 14.007315,8.2014375 C14.007315,11.526 12.00759,12.2575313 10.102365,12.471625 C10.40949,12.7388438 10.683015,13.2669063 10.683015,14.0744063 C10.683015,15.2309375 10.672515,16.1643438 10.672515,16.4480313 C10.672515,16.6796563 10.82634,16.949 11.260515,16.8645313 C14.65569,15.7175625 17.10429,12.4764063 17.10429,8.65459375 C17.10429,3.87440625 13.27494,-3.55271368e-15 8.551515,-3.55271368e-15" id="Fill-1" fill="#181717" mask="url(#mask-2)"></path>
            </g>
        </g>
    </g>
</svg>