<?xml version="1.0" encoding="UTF-8"?>
<svg width="17px" height="17px" viewBox="0 0 17 17" version="1.1" xmlns="http://www.w3.org/2000/svg" xmlns:xlink="http://www.w3.org/1999/xlink">
    <!-- Generator: Sketch 46.1 (44463) - http://www.bohemiancoding.com/sketch -->
    <title>instagram</title>
    <desc>Created with Sketch.</desc>
    <defs>
        <polygon id="path-1" points="16.2827202 16.83569 0.357276007 16.83569 0.357276007 0.910198961 16.282767 0.910198961 16.282767 16.83569 16.2827202 0.910292641 0.357229167 0.910292641 0.357229167 16.8357836 16.2827202 16.8357836"></polygon>
    </defs>
    <g id="Page-1" stroke="none" stroke-width="1" fill="none" fill-rule="evenodd">
        <g id="home" transform="translate(-968.000000, -31.000000)">
            <g id="instagram" transform="translate(968.000000, 31.000000)">
                <mask id="mask-2" fill="white">
                    <use xlink:href="#path-1"></use>
                </mask>
                <g id="Clip-2"></g>
                <path d="M14.8573887,12.4422217 C14.8573887,14.0745845 13.5496249,15.4099838 11.9509866,15.4099838 L4.68896272,15.4099838 C3.09032446,15.4099838 1.78256061,14.0745845 1.78256061,12.4422217 L1.78256061,5.30338617 C1.78256061,3.67102334 3.09032446,2.33562408 4.68896272,2.33562408 L11.9509866,2.33562408 C13.5496249,2.33562408 14.8573887,3.67102334 14.8573887,5.30338617 L14.8573887,12.4422217 Z M12.0849481,0.910292641 L4.55500124,0.910292641 C2.24627344,0.910292641 0.357229167,2.83961904 0.357229167,5.1970601 L0.357229167,12.5485478 C0.357229167,14.9064572 2.24627344,16.8357836 4.55500124,16.8357836 L12.0849481,16.8357836 C14.3936759,16.8357836 16.2827202,14.9064572 16.2827202,12.5485478 L16.2827202,5.1970601 C16.2827202,2.83961904 14.3936759,0.910292641 12.0849481,0.910292641 L12.0849481,0.910292641 Z" id="Fill-1" fill="#000000"></path>
                <path d="M8.31903787,11.5120794 C6.89230124,11.5120794 5.73582955,10.331251 5.73582955,8.87406861 C5.73582955,7.41688619 6.89230124,6.23558947 8.31903787,6.23558947 C9.74577451,6.23558947 10.9022462,7.41688619 10.9022462,8.87406861 C10.9022462,10.331251 9.74577451,11.5120794 8.31903787,11.5120794 M8.31903787,4.7849646 C6.10773661,4.7849646 4.31518208,6.61545927 4.31518208,8.87406861 C4.31518208,11.1322096 6.10773661,12.9631726 8.31903787,12.9631726 C10.5303391,12.9631726 12.3228937,11.1322096 12.3228937,8.87406861 C12.3228937,6.61545927 10.5303391,4.7849646 8.31903787,4.7849646" id="Fill-4" fill="#000000"></path>
                <path d="M13.442362,4.56505231 C13.442362,5.07466802 13.0376672,5.48826239 12.5383562,5.48826239 C12.0385768,5.48826239 11.6343504,5.07466802 11.6343504,4.56505231 C11.6343504,4.0549682 12.0385768,3.64137383 12.5383562,3.64137383 C13.0376672,3.64137383 13.442362,4.0549682 13.442362,4.56505231" id="Fill-6" fill="#000000"></path>
            </g>
        </g>
    </g>
</svg>