<?xml version="1.0" encoding="UTF-8"?>
<svg width="18px" height="17px" viewBox="0 0 18 17" version="1.1" xmlns="http://www.w3.org/2000/svg" xmlns:xlink="http://www.w3.org/1999/xlink">
    <!-- Generator: Sketch 46.1 (44463) - http://www.bohemiancoding.com/sketch -->
    <title>linkedin</title>
    <desc>Created with Sketch.</desc>
    <defs></defs>
    <g id="Page-1" stroke="none" stroke-width="1" fill="none" fill-rule="evenodd">
        <g id="home" transform="translate(-915.000000, -30.000000)">
            <g id="linkedin" transform="translate(915.000000, 30.000000)">
                <polygon id="Fill-1" fill="#000000" points="0.553721392 16.9050324 3.98509711 16.9050324 3.98509711 6.03183454 0.553721392 6.03183454"></polygon>
                <polygon id="Clip-3" points="17.7156918 5.92759256 17.7156918 16.9049398 6.08025912 16.9049398 6.08025912 5.92759256"></polygon>
                <path d="M13.3609968,5.92759256 C11.395119,5.92759256 10.1633787,6.99223092 9.93563864,7.73840354 L9.93563864,6.03220485 L6.08025912,6.03220485 C6.13025083,6.93807323 6.08025912,16.9049398 6.08025912,16.9049398 L9.93563864,16.9049398 L9.93563864,11.0211928 C9.93563864,10.6943951 9.91990051,10.3671345 10.0194211,10.1324512 C10.2846549,9.47885582 10.8540049,8.80026459 11.8774464,8.80026459 C13.2161134,8.80026459 13.8248089,9.80565351 13.8248089,11.2785575 L13.8248089,16.9049398 L17.7158306,16.9049398 L17.7158306,10.8591826 C17.7158306,7.49168518 15.7999445,5.92759256 13.3609968,5.92759256" id="Fill-2" fill="#000000"></path>
                <path d="M2.20608642,0.899583315 C0.939166767,0.899583315 0.110137504,1.71333733 0.110137504,2.78723342 C0.110137504,3.84076251 0.915096682,4.6721062 2.15748336,4.6721062 L2.18201633,4.6721062 C3.47208029,4.6721062 4.27565081,3.83798519 4.27565081,2.7844561 C4.25065495,1.7110229 3.47208029,0.899583315 2.20608642,0.899583315" id="Fill-5" fill="#000000"></path>
            </g>
        </g>
    </g>
</svg>