<?xml version="1.0" encoding="UTF-8"?>
<svg width="17px" height="16px" viewBox="0 0 17 16" version="1.1" xmlns="http://www.w3.org/2000/svg" xmlns:xlink="http://www.w3.org/1999/xlink">
    <!-- Generator: Sketch 46.1 (44463) - http://www.bohemiancoding.com/sketch -->
    <title>twitter</title>
    <desc>Created with Sketch.</desc>
    <defs></defs>
    <g id="Page-1" stroke="none" stroke-width="1" fill="none" fill-rule="evenodd">
        <g id="home" transform="translate(-942.000000, -32.000000)">
            <g id="twitter" transform="translate(942.000000, 32.000000)">
                <polygon id="Clip-2" points="0.0943293653 15.1472959 0.0943293653 0.641295616 17.0663312 0.641295616 17.0663312 15.1472959"></polygon>
                <path d="M16.5983532,0.909389833 C15.9248537,1.32859861 15.1805327,1.63339139 14.385757,1.79718191 C13.7520657,1.08552398 12.8466602,0.641153189 11.8445115,0.641153189 C9.92260782,0.641153189 8.36360695,2.28095738 8.36360695,4.30293944 C8.36360695,4.59016629 8.39369456,4.86884755 8.45340688,5.13708419 C5.55944209,4.98421304 2.99412653,3.52766433 1.27589279,1.3096084 C0.975942505,1.8522535 0.804674595,2.48225355 0.804674595,3.15260778 C0.804674595,4.42257773 1.41938753,5.54394933 2.35395485,6.20053566 C1.78414189,6.18296972 1.24580518,6.01633068 0.775512761,5.74382124 L0.775512761,5.78892297 C0.775512761,7.56403237 1.97623968,9.04431884 3.56995701,9.37949596 C3.27833868,9.46542663 2.97051933,9.50815459 2.65251648,9.50815459 C2.42847954,9.50815459 2.20953434,9.48631586 1.99706956,9.4435879 C2.44051458,10.8977628 3.72548679,11.9569415 5.2493083,11.9854268 C4.058302,12.9681699 2.55577325,13.553543 0.925025018,13.553543 C0.644053068,13.553543 0.366321322,13.5369266 0.0941442108,13.5032189 C1.6355554,14.5405589 3.46627049,15.1472959 5.43168548,15.1472959 C11.8375682,15.1472959 15.3388398,9.56797374 15.3388398,4.72832003 C15.3388398,4.56927707 15.3360624,4.4102341 15.3300449,4.25403966 C16.0104877,3.73750609 16.6011305,3.09326339 17.0663312,2.35834246 C16.4428234,2.64984211 15.7711755,2.84686548 15.0671255,2.93469518 C15.7864508,2.48225355 16.3382112,1.76442381 16.5983532,0.909389833" id="Fill-1" fill="#000000"></path>
            </g>
        </g>
    </g>
</svg>